<mxfile host="app.diagrams.net" modified="2021-01-09T16:19:02.942Z" agent="5.0 (Macintosh; Intel Mac OS X 10_15_4) AppleWebKit/537.36 (KHTML, like Gecko) Chrome/87.0.4280.141 Safari/537.36" etag="frrU5ZB4dR5adhlPHMQd" version="14.1.9" type="github">
  <diagram id="4hBuZSuhzFaNHgpOJpdX" name="Page-1">
    <mxGraphModel dx="2565" dy="4965" grid="1" gridSize="10" guides="1" tooltips="1" connect="1" arrows="1" fold="1" page="1" pageScale="1" pageWidth="850" pageHeight="1100" math="0" shadow="0">
      <root>
        <mxCell id="0" />
        <mxCell id="1" parent="0" />
        <mxCell id="QiIV917hXotMNkQQaeQ0-1" value="" style="whiteSpace=wrap;html=1;aspect=fixed;" vertex="1" parent="1">
          <mxGeometry x="30" y="-1700" width="2510" height="2510" as="geometry" />
        </mxCell>
        <mxCell id="QiIV917hXotMNkQQaeQ0-3" value="" style="line;strokeWidth=4;html=1;perimeter=backbonePerimeter;points=[];outlineConnect=0;" vertex="1" parent="1">
          <mxGeometry x="30" y="-2140" width="2510" height="1650" as="geometry" />
        </mxCell>
        <mxCell id="QiIV917hXotMNkQQaeQ0-4" value="" style="shape=image;imageAspect=0;aspect=fixed;verticalLabelPosition=bottom;verticalAlign=top;image=https://allgoodshop.blob.core.windows.net/default/0000011_Logo-v3-44aa00-222x60.png;" vertex="1" parent="1">
          <mxGeometry x="840" y="-1610" width="840" height="227.02" as="geometry" />
        </mxCell>
        <mxCell id="QiIV917hXotMNkQQaeQ0-12" value="&lt;span style=&quot;font-size: 100px&quot;&gt;Vendor Application&amp;nbsp;&lt;/span&gt;" style="text;strokeColor=none;fillColor=none;html=1;fontSize=24;fontStyle=1;verticalAlign=middle;align=center;" vertex="1" parent="1">
          <mxGeometry x="795" y="-1250" width="980" height="180" as="geometry" />
        </mxCell>
        <mxCell id="QiIV917hXotMNkQQaeQ0-18" value="&lt;span style=&quot;font-size: 50px&quot;&gt;First Name&lt;/span&gt;" style="text;html=1;strokeColor=none;fillColor=none;align=center;verticalAlign=middle;whiteSpace=wrap;rounded=0;" vertex="1" parent="1">
          <mxGeometry x="480" y="-1000" width="330" height="150" as="geometry" />
        </mxCell>
        <mxCell id="QiIV917hXotMNkQQaeQ0-19" value="" style="rounded=0;whiteSpace=wrap;html=1;" vertex="1" parent="1">
          <mxGeometry x="520" y="-860" width="460" height="60" as="geometry" />
        </mxCell>
        <mxCell id="QiIV917hXotMNkQQaeQ0-20" value="&lt;span style=&quot;font-size: 50px&quot;&gt;Last Name&amp;nbsp;&lt;br&gt;&lt;br&gt;&lt;/span&gt;" style="text;html=1;strokeColor=none;fillColor=none;align=center;verticalAlign=middle;whiteSpace=wrap;rounded=0;" vertex="1" parent="1">
          <mxGeometry x="1410" y="-940" width="300" height="40" as="geometry" />
        </mxCell>
        <mxCell id="QiIV917hXotMNkQQaeQ0-21" value="" style="rounded=0;whiteSpace=wrap;html=1;" vertex="1" parent="1">
          <mxGeometry x="1420" y="-870" width="510" height="60" as="geometry" />
        </mxCell>
        <mxCell id="QiIV917hXotMNkQQaeQ0-26" style="edgeStyle=orthogonalEdgeStyle;rounded=0;orthogonalLoop=1;jettySize=auto;html=1;entryX=0.087;entryY=0.167;entryDx=0;entryDy=0;entryPerimeter=0;" edge="1" parent="1" source="QiIV917hXotMNkQQaeQ0-24" target="QiIV917hXotMNkQQaeQ0-25">
          <mxGeometry relative="1" as="geometry" />
        </mxCell>
        <mxCell id="QiIV917hXotMNkQQaeQ0-24" value="&lt;span style=&quot;font-size: 50px&quot;&gt;First Name&lt;/span&gt;" style="text;html=1;strokeColor=none;fillColor=none;align=center;verticalAlign=middle;whiteSpace=wrap;rounded=0;" vertex="1" parent="1">
          <mxGeometry x="520" y="-750" width="330" height="150" as="geometry" />
        </mxCell>
        <mxCell id="QiIV917hXotMNkQQaeQ0-25" value="" style="rounded=0;whiteSpace=wrap;html=1;" vertex="1" parent="1">
          <mxGeometry x="540" y="-560" width="460" height="60" as="geometry" />
        </mxCell>
      </root>
    </mxGraphModel>
  </diagram>
</mxfile>
